<svg id="ic_video_call" xmlns="http://www.w3.org/2000/svg" width="75" height="75" viewBox="0 0 75 75">
  <g id="ic_type_call">
    <g id="Fill">
      <path id="Rounded" d="M22.5,0h30A22.5,22.5,0,0,1,75,22.5v30A22.5,22.5,0,0,1,52.5,75h-30A22.5,22.5,0,0,1,0,52.5v-30A22.5,22.5,0,0,1,22.5,0Z" transform="translate(0)" fill="#fa4169"/>
    </g>
    <path id="Path" d="M34.688,25a20.441,20.441,0,0,1-6.875-1.094A3,3,0,0,0,25,24.531l-4.375,3.281A23.927,23.927,0,0,1,9.688,16.875L12.969,12.5a2.717,2.717,0,0,0,.625-2.812A25.29,25.29,0,0,1,12.5,2.813,2.8,2.8,0,0,0,9.688,0H2.813A2.8,2.8,0,0,0,0,2.813,34.81,34.81,0,0,0,34.688,37.5,2.8,2.8,0,0,0,37.5,34.688V27.656A2.772,2.772,0,0,0,34.688,25Z" transform="translate(18.75 18.75)" fill="#fff"/>
  </g>
</svg>
